<?xml version="1.0" encoding="utf-8"?>
<!-- Generator: Adobe Illustrator 27.2.0, SVG Export Plug-In . SVG Version: 6.00 Build 0)  -->
<svg version="1.1" id="Layer_1" xmlns="http://www.w3.org/2000/svg" xmlns:xlink="http://www.w3.org/1999/xlink" x="0px" y="0px"
	 viewBox="0 0 700 450" style="enable-background:new 0 0 700 450;" xml:space="preserve">
<style type="text/css">
	.st0{fill:none;}
	.st1{fill:url(#SVGID_1_);}
	.st2{opacity:0.71;fill:url(#SVGID_00000005967255956858993050000006570992729238651290_);enable-background:new    ;}
	.st3{fill:url(#SVGID_00000019636439933421381820000002804022562910482620_);}
	.st4{fill:url(#SVGID_00000179629696563561674500000011045508584746294923_);}
	.st5{fill:url(#SVGID_00000013166330782655092710000010840657892221354674_);}
	.st6{fill:#2A5182;}
	.st7{fill:#4D6370;}
	.st8{opacity:0.83;fill:#FFEFD2;enable-background:new    ;}
	.st9{opacity:0.46;fill:#B3C6BB;enable-background:new    ;}
</style>
<g>
	<g id="Layer_2_00000160899098904246473810000007531035815865953963_">
		<g id="Layer_1-2">
			<rect class="st0" width="700" height="450"/>
			<g>
				
					<linearGradient id="SVGID_1_" gradientUnits="userSpaceOnUse" x1="464.61" y1="255.28" x2="534.51" y2="255.28" gradientTransform="matrix(1 0 0 -1 0 452)">
					<stop  offset="0" style="stop-color:#BCDBF2"/>
					<stop  offset="1" style="stop-color:#92C5E7"/>
				</linearGradient>
				<rect x="464.6" y="161.8" class="st1" width="69.9" height="69.9"/>
				
					<linearGradient id="SVGID_00000072238005435373609910000017355072074529799083_" gradientUnits="userSpaceOnUse" x1="86.25" y1="356.25" x2="239.97" y2="356.25" gradientTransform="matrix(1 0 0 -1 0 452)">
					<stop  offset="0" style="stop-color:#E7F2EA"/>
					<stop  offset="1" style="stop-color:#FBFAE8"/>
				</linearGradient>
				
					<circle style="opacity:0.71;fill:url(#SVGID_00000072238005435373609910000017355072074529799083_);enable-background:new    ;" cx="163.1" cy="95.8" r="76.9"/>
				<g>
					
						<linearGradient id="SVGID_00000016772363523891896830000010037512116515910806_" gradientUnits="userSpaceOnUse" x1="73.9" y1="160.01" x2="148.86" y2="160.01" gradientTransform="matrix(1 0 0 -1 0 452)">
						<stop  offset="0" style="stop-color:#E1EE9C"/>
						<stop  offset="1" style="stop-color:#D9E585"/>
					</linearGradient>
					<path style="fill:url(#SVGID_00000016772363523891896830000010037512116515910806_);" d="M148.5,292
						c0-20.5-16.6-37.1-37.1-37.1S74.2,271.5,74.2,292s16.6,37.1,37.1,37.1S148.5,312.5,148.5,292z"/>
					
						<linearGradient id="SVGID_00000097487274653182267100000011910363655842603953_" gradientUnits="userSpaceOnUse" x1="35.41" y1="91.59" x2="187.35" y2="91.59" gradientTransform="matrix(1 0 0 -1 0 452)">
						<stop  offset="0" style="stop-color:#E1EE9C"/>
						<stop  offset="1" style="stop-color:#D9E585"/>
					</linearGradient>
					<path style="fill:url(#SVGID_00000097487274653182267100000011910363655842603953_);" d="M111.4,329.1
						c-38.5,0-70.3,27.2-75.3,62.6h150.5C181.7,356.4,149.9,329.1,111.4,329.1z"/>
				</g>
				
					<linearGradient id="SVGID_00000127725559329115202060000017875662490715050128_" gradientUnits="userSpaceOnUse" x1="224.2924" y1="154.8714" x2="478.0124" y2="358.8214" gradientTransform="matrix(1 0 0 -1 0 452)">
					<stop  offset="0" style="stop-color:#F2F2F2"/>
					<stop  offset="7.000000e-02" style="stop-color:#F2F1DC"/>
					<stop  offset="0.31" style="stop-color:#F4EFA0"/>
					<stop  offset="0.52" style="stop-color:#F6ED70"/>
					<stop  offset="0.7" style="stop-color:#F7EC4D"/>
					<stop  offset="0.85" style="stop-color:#F8EC38"/>
					<stop  offset="0.95" style="stop-color:#F9EC31"/>
				</linearGradient>
				<path style="fill:url(#SVGID_00000127725559329115202060000017875662490715050128_);" d="M230.5,129.5h199.4
					c9.6,0,17.4,7.8,17.4,17.4v130.2c0,9.6-7.8,17.4-17.4,17.4H230.5c-9.6,0-17.4-7.8-17.4-17.4V146.9
					C213.1,137.3,220.9,129.5,230.5,129.5z"/>
				<g>
					<g>
						<g>
							<path class="st6" d="M440.2,293.3h-220c-4.6,0-8.3-3.7-8.3-8.3V140c0-4.6,3.7-8.3,8.3-8.3h220c4.6,0,8.3,3.7,8.3,8.3v145
								C448.5,289.6,444.8,293.3,440.2,293.3z M220.2,134.2c-3.2,0-5.8,2.6-5.8,5.8v145c0,3.2,2.6,5.8,5.8,5.8h220
								c3.2,0,5.8-2.6,5.8-5.8V140c0-3.2-2.6-5.8-5.8-5.8H220.2z"/>
						</g>
						<g>
							<path class="st6" d="M445.2,164.2h-230c-0.7,0-1.2-0.6-1.2-1.2s0.6-1.2,1.2-1.2h230c0.7,0,1.2,0.6,1.2,1.2
								S445.9,164.2,445.2,164.2z"/>
						</g>
						<g>
							<g>
								<path class="st6" d="M431.3,154.3c-3.4,0-6.1-2.7-6.1-6.1s2.8-6.1,6.1-6.1c3.4,0,6.1,2.7,6.1,6.1S434.7,154.3,431.3,154.3z
									 M431.3,144.6c-2,0-3.6,1.6-3.6,3.6c0,2,1.6,3.6,3.6,3.6s3.6-1.6,3.6-3.6C434.9,146.2,433.3,144.6,431.3,144.6z"/>
							</g>
							<g>
								<path class="st6" d="M416.5,154.3c-3.4,0-6.1-2.7-6.1-6.1s2.8-6.1,6.1-6.1c3.4,0,6.1,2.7,6.1,6.1S419.9,154.3,416.5,154.3z
									 M416.5,144.6c-2,0-3.6,1.6-3.6,3.6c0,2,1.6,3.6,3.6,3.6s3.6-1.6,3.6-3.6C420.2,146.2,418.5,144.6,416.5,144.6z"/>
							</g>
							<g>
								<path class="st6" d="M401.8,154.3c-3.4,0-6.1-2.7-6.1-6.1s2.8-6.1,6.1-6.1c3.4,0,6.1,2.7,6.1,6.1S405.2,154.3,401.8,154.3z
									 M401.8,144.6c-2,0-3.6,1.6-3.6,3.6c0,2,1.6,3.6,3.6,3.6s3.6-1.6,3.6-3.6C405.4,146.2,403.8,144.6,401.8,144.6z"/>
							</g>
							<g>
								<path class="st6" d="M312.9,154.3h-89.6v-12.2h89.6V154.3z M225.8,151.8h84.6v-7.2h-84.6V151.8z"/>
							</g>
						</g>
						<g>
							<path class="st6" d="M437.1,204.7H227.9v-30h209.2V204.7z M230.4,202.2h204.2v-25H230.4V202.2z"/>
						</g>
						<g>
							<path class="st6" d="M292.2,278.9h-64.4v-64.3h64.4V278.9z M230.4,276.4h59.4V217h-59.4V276.4z"/>
						</g>
						<g>
							<path class="st6" d="M435.2,278.4H301.8v-64.4h133.4V278.4z M304.3,275.9h128.4v-59.4H304.3V275.9z"/>
						</g>
						<g>
							<path class="st6" d="M358.8,227.8h-44.7c-0.7,0-1.2-0.6-1.2-1.2s0.6-1.2,1.2-1.2h44.7c0.7,0,1.2,0.6,1.2,1.2
								S359.5,227.8,358.8,227.8z"/>
						</g>
						<g>
							<path class="st6" d="M348.2,240.9h-34.6c-0.7,0-1.2-0.6-1.2-1.2s0.6-1.2,1.2-1.2h34.6c0.7,0,1.2,0.6,1.2,1.2
								S348.9,240.9,348.2,240.9z"/>
						</g>
						<g>
							<path class="st6" d="M354.8,254h-40.9c-0.7,0-1.2-0.6-1.2-1.2s0.6-1.2,1.2-1.2h40.9c0.7,0,1.2,0.6,1.2,1.2
								S355.5,254,354.8,254z"/>
						</g>
						<g>
							<path class="st6" d="M329.5,267.1h-16.6c-0.7,0-1.2-0.6-1.2-1.2s0.6-1.2,1.2-1.2h16.6c0.7,0,1.2,0.6,1.2,1.2
								S330.2,267.1,329.5,267.1z"/>
						</g>
						<g>
							<path class="st6" d="M425.9,227.5h-45.5c-0.7,0-1.2-0.6-1.2-1.2s0.6-1.2,1.2-1.2h45.5c0.7,0,1.2,0.6,1.2,1.2
								S426.6,227.5,425.9,227.5z"/>
						</g>
						<g>
							<path class="st6" d="M425.9,240.6h-45.5c-0.7,0-1.2-0.6-1.2-1.2s0.6-1.2,1.2-1.2h45.5c0.7,0,1.2,0.6,1.2,1.2
								S426.6,240.6,425.9,240.6z"/>
						</g>
						<g>
							<path class="st6" d="M417.8,253.7H380c-0.7,0-1.2-0.6-1.2-1.2s0.6-1.2,1.2-1.2h37.8c0.7,0,1.2,0.6,1.2,1.2
								S418.5,253.7,417.8,253.7z"/>
						</g>
						<g>
							<path class="st6" d="M406.7,266.8h-27.2c-0.7,0-1.2-0.6-1.2-1.2s0.6-1.2,1.2-1.2h27.2c0.7,0,1.2,0.6,1.2,1.2
								S407.4,266.8,406.7,266.8z"/>
						</g>
					</g>
					<g>
						<path class="st6" d="M438.3,390.2H312.8v-2.5c20.3,0,36.8-16.5,36.8-36.8v-10.5h52V351c0,20.3,16.5,36.8,36.8,36.8V390.2z
							 M326.6,387.7h98c-14.9-5.6-25.5-20-25.5-36.8v-8h-47v8C352,367.8,341.4,382.1,326.6,387.7z"/>
					</g>
					<g>
						<path class="st6" d="M445.2,343h-234c-5.8,0-10.5-4.7-10.5-10.5V111.8c0-5.8,4.7-10.5,10.5-10.5h328.7
							c5.8,0,10.5,4.7,10.5,10.5V138c0,0.7-0.6,1.2-1.2,1.2s-1.2-0.6-1.2-1.2v-26.2c0-4.4-3.6-8-8-8H211.2c-4.4,0-8,3.6-8,8v220.7
							c0,4.4,3.6,8,8,8h234c0.7,0,1.2,0.6,1.2,1.2S445.9,343,445.2,343z"/>
					</g>
					<g>
						<path class="st6" d="M549.1,241c-0.7,0-1.2-0.6-1.2-1.2v-28.5c0-0.7,0.6-1.2,1.2-1.2s1.2,0.6,1.2,1.2v28.5
							C550.3,240.5,549.8,241,549.1,241z"/>
					</g>
					<g>
						<path class="st6" d="M445.2,324.5H215.3v-20.8c0-0.7,0.6-1.2,1.2-1.2s1.2,0.6,1.2,1.2V322h227.4c0.7,0,1.2,0.6,1.2,1.2
							S445.9,324.5,445.2,324.5z"/>
					</g>
					<g>
						<path class="st6" d="M534.5,241c-0.7,0-1.2-0.6-1.2-1.2v-28.5c0-0.7,0.6-1.2,1.2-1.2s1.2,0.6,1.2,1.2v28.5
							C535.8,240.5,535.2,241,534.5,241z"/>
					</g>
					<g>
						<path class="st6" d="M534.5,139.2c-0.7,0-1.2-0.6-1.2-1.2v-15.7H216.6c-0.7,0-1.2-0.6-1.2-1.2s0.6-1.2,1.2-1.2h319.2V138
							C535.8,138.7,535.2,139.2,534.5,139.2z"/>
					</g>
					<g>
						<path class="st6" d="M501.8,405c-2.1,0-3.9-1.7-3.9-3.9c0-2.1,1.7-3.9,3.9-3.9c2.1,0,3.9,1.7,3.9,3.9
							C505.7,403.3,503.9,405,501.8,405z M501.8,399.8c-0.8,0-1.4,0.6-1.4,1.4s0.6,1.4,1.4,1.4s1.4-0.6,1.4-1.4
							S502.5,399.8,501.8,399.8z"/>
					</g>
					<g>
						<path class="st6" d="M536,412h-68.4c-6.3,0-11.5-5.1-11.5-11.5V259.7c0-6.3,5.1-11.5,11.5-11.5H536c6.3,0,11.5,5.1,11.5,11.5
							v140.9C547.5,406.9,542.3,412,536,412z M467.6,250.8c-4.9,0-9,4-9,9v140.9c0,4.9,4,9,9,9H536c4.9,0,9-4,9-9V259.7
							c0-4.9-4-9-9-9H467.6z"/>
					</g>
					<g>
						<path class="st6" d="M540.2,392.2h-76.8V267.6h76.8V392.2z M465.9,389.7h71.8V270.1h-71.8V389.7z"/>
					</g>
					<g>
						<path class="st6" d="M534.2,295.7h-64.6v-18.5h64.6V295.7z M472,293.2h59.6v-13.5H472V293.2z"/>
					</g>
					<g>
						<path class="st6" d="M500,338.9h-30.5v-38.5H500V338.9z M472,336.4h25.5v-33.5H472V336.4z"/>
					</g>
					<g>
						<path class="st6" d="M534.3,338.7h-29.1v-38.5h29.1V338.7z M507.7,336.2h24.1v-33.5h-24.1V336.2z"/>
					</g>
					<g>
						<path class="st6" d="M521.9,320.7h-9.3c-0.7,0-1.2-0.6-1.2-1.2s0.6-1.2,1.2-1.2h9.3c0.7,0,1.2,0.6,1.2,1.2
							S522.6,320.7,521.9,320.7z"/>
					</g>
					<g>
						<g>
							<path class="st6" d="M524.7,309.2h-12c-0.7,0-1.2-0.6-1.2-1.2s0.6-1.2,1.2-1.2h12c0.7,0,1.2,0.6,1.2,1.2
								S525.4,309.2,524.7,309.2z"/>
						</g>
						<g>
							<path class="st6" d="M516.8,332.1h-4.5c-0.7,0-1.2-0.6-1.2-1.2s0.6-1.2,1.2-1.2h4.5c0.7,0,1.2,0.6,1.2,1.2
								S517.5,332.1,516.8,332.1z"/>
						</g>
					</g>
					<g>
						<path class="st6" d="M500,382.4h-30.5v-38.5H500V382.4z M472,379.9h25.5v-33.5H472V379.9z"/>
					</g>
					<g>
						<path class="st6" d="M534.3,382.1h-29.1v-38.5h29.1V382.1z M507.7,379.6h24.1v-33.5h-24.1V379.6z"/>
					</g>
					<g>
						<path class="st6" d="M521.9,364.1h-9.3c-0.7,0-1.2-0.6-1.2-1.2s0.6-1.2,1.2-1.2h9.3c0.7,0,1.2,0.6,1.2,1.2
							S522.6,364.1,521.9,364.1z"/>
					</g>
					<g>
						<g>
							<path class="st6" d="M524.7,352.7h-12c-0.7,0-1.2-0.6-1.2-1.2s0.6-1.2,1.2-1.2h12c0.7,0,1.2,0.6,1.2,1.2
								S525.4,352.7,524.7,352.7z"/>
						</g>
						<g>
							<path class="st6" d="M516.8,375.6h-4.5c-0.7,0-1.2-0.6-1.2-1.2s0.6-1.2,1.2-1.2h4.5c0.7,0,1.2,0.6,1.2,1.2
								S517.5,375.6,516.8,375.6z"/>
						</g>
					</g>
					<g>
						<path class="st6" d="M547.5,200.3h-87.2v-52.9h87.2V200.3z M462.8,197.8H545v-47.9h-82.2V197.8z"/>
					</g>
					<g>
						<path class="st6" d="M295.7,390.2H260c-0.7,0-1.2-0.6-1.2-1.2s0.6-1.2,1.2-1.2h35.7c0.7,0,1.2,0.6,1.2,1.2
							S296.4,390.2,295.7,390.2z"/>
					</g>
					<g>
						<path class="st6" d="M240.6,390.2h-11.4c-0.7,0-1.2-0.6-1.2-1.2s0.6-1.2,1.2-1.2h11.4c0.7,0,1.2,0.6,1.2,1.2
							S241.3,390.2,240.6,390.2z"/>
					</g>
					<g>
						<path class="st6" d="M438.3,412h-62.8c-0.7,0-1.2-0.6-1.2-1.2s0.6-1.2,1.2-1.2h62.8c0.7,0,1.2,0.6,1.2,1.2S439,412,438.3,412z
							"/>
					</g>
					<g>
						<path class="st6" d="M354.8,412h-41.2c-0.7,0-1.2-0.6-1.2-1.2s0.6-1.2,1.2-1.2h41.2c0.7,0,1.2,0.6,1.2,1.2
							S355.5,412,354.8,412z"/>
					</g>
					<g>
						<path class="st6" d="M291,412h-13.1c-0.7,0-1.2-0.6-1.2-1.2s0.6-1.2,1.2-1.2H291c0.7,0,1.2,0.6,1.2,1.2S291.7,412,291,412z"/>
					</g>
				</g>
				<g>
					<g>
						<path class="st6" d="M125.8,348.4c-17.9,0-32.5-14.6-32.5-32.5c0-17.9,14.6-32.5,32.5-32.5s32.5,14.6,32.5,32.5
							C158.3,333.8,143.7,348.4,125.8,348.4z M125.8,285.9c-16.5,0-30,13.5-30,30s13.5,30,30,30s30-13.5,30-30
							S142.3,285.9,125.8,285.9z"/>
					</g>
					<g>
						<path class="st6" d="M182.3,417.6c-20.7,0-37.6-16.9-37.6-37.6s16.9-37.6,37.6-37.6s37.6,16.9,37.6,37.6
							S203,417.6,182.3,417.6z M182.3,344.9c-19.3,0-35.1,15.7-35.1,35.1c0,19.3,15.7,35.1,35.1,35.1s35.1-15.7,35.1-35.1
							C217.4,360.7,201.6,344.9,182.3,344.9z"/>
					</g>
					<g>
						<path class="st6" d="M138.8,401.2H60.3l0.3-1.5c6-31.2,33.4-53.8,65.2-53.8c5.4,0,10.8,0.7,16.1,2c4.7,1.2,9.3,2.9,13.6,5
							c0.6,0.3,0.9,1.1,0.6,1.7c-0.3,0.6-1.1,0.9-1.7,0.6c-4.2-2.1-8.6-3.7-13.1-4.9c-5-1.2-10.2-1.9-15.5-1.9
							c-30.1,0-56.1,21.1-62.4,50.3h75.5c0.7,0,1.2,0.6,1.2,1.2S139.5,401.2,138.8,401.2z"/>
					</g>
					<g>
						<path class="st6" d="M171.4,397.3l-13.9-20.9c-0.4-0.6-0.2-1.4,0.3-1.7s1.4-0.2,1.7,0.3l12.4,18.6l34.4-26.8
							c0.5-0.4,1.3-0.3,1.8,0.2c0.4,0.5,0.3,1.3-0.2,1.8L171.4,397.3z"/>
					</g>
				</g>
				<g>
					<g>
						<path class="st6" d="M612.3,202.1c-7.4,0-13.5-6-13.5-13.5s6-13.5,13.5-13.5s13.5,6,13.5,13.5S619.8,202.1,612.3,202.1z
							 M612.3,177.7c-6,0-11,4.9-11,11s4.9,11,11,11s11-4.9,11-11S618.4,177.7,612.3,177.7z"/>
					</g>
					<g>
						<path class="st6" d="M612.3,83.8c-7.4,0-13.5-6-13.5-13.5s6-13.5,13.5-13.5s13.5,6,13.5,13.5S619.8,83.8,612.3,83.8z
							 M612.3,59.4c-6,0-11,4.9-11,11s4.9,11,11,11s11-4.9,11-11S618.4,59.4,612.3,59.4z"/>
					</g>
					<g>
						<path class="st6" d="M600.1,71.6h-53.9c-0.7,0-1.2-0.6-1.2-1.2s0.6-1.2,1.2-1.2h53.9c0.7,0,1.2,0.6,1.2,1.2
							S600.8,71.6,600.1,71.6z"/>
					</g>
					<g>
						<path class="st6" d="M612.3,177.7c-0.7,0-1.2-0.6-1.2-1.2V82.6c0-0.7,0.6-1.2,1.2-1.2s1.2,0.6,1.2,1.2v93.9
							C613.6,177.1,613,177.7,612.3,177.7z"/>
					</g>
					<g>
						<path class="st6" d="M598.5,189.9h-33.4c-0.7,0-1.2-0.6-1.2-1.2s0.6-1.2,1.2-1.2h33.4c0.7,0,1.2,0.6,1.2,1.2
							S599.2,189.9,598.5,189.9z"/>
					</g>
				</g>
				<g>
					<path class="st7" d="M581.5,269.5c-3.1,0-5.8-0.6-8.1-1.8c-2.3-1.2-4.3-2.9-6-5l3-2.9c1.4,1.9,3,3.4,4.8,4.3s4,1.4,6.5,1.4
						s4.7-0.6,6.3-1.8s2.4-2.8,2.4-4.9c0-1.6-0.4-2.9-1.1-4c-0.8-1-1.7-1.9-2.9-2.5s-2.5-1.2-4-1.7c-1.5-0.5-2.9-1.1-4.3-1.6
						c-1.4-0.6-2.8-1.3-4-2.1s-2.2-2-2.9-3.3c-0.7-1.3-1.1-3-1.1-5.1c0-2.2,0.5-4.1,1.6-5.6c1.1-1.6,2.5-2.8,4.4-3.6
						c1.8-0.8,4-1.3,6.3-1.3c2.6,0,5,0.5,7,1.5s3.8,2.4,5.2,4.1l-3,2.9c-1.3-1.5-2.6-2.6-4.1-3.4c-1.5-0.8-3.2-1.2-5.2-1.2
						c-2.4,0-4.2,0.6-5.7,1.6c-1.4,1.1-2.1,2.6-2.1,4.6c0,1.5,0.4,2.8,1.1,3.7c0.7,0.9,1.7,1.7,2.9,2.4s2.5,1.2,4,1.7
						c1.4,0.5,2.9,1,4.3,1.6s2.8,1.3,4,2.2c1.2,0.9,2.2,2.1,2.9,3.4c0.8,1.4,1.1,3.2,1.1,5.3c0,3.5-1.2,6.2-3.6,8.2
						S585.5,269.5,581.5,269.5L581.5,269.5z"/>
					<path class="st7" d="M602.9,268.9v-40.5h4.3v40.5H602.9z M605.7,232.3v-3.9h23.5v3.9H605.7z M605.7,250v-3.8h22v3.8H605.7z
						 M605.7,268.9v-4h23.8v4H605.7z"/>
					<path class="st7" d="M654.9,269.5c-2.9,0-5.5-0.5-8-1.6c-2.5-1.1-4.6-2.6-6.5-4.5c-1.8-1.9-3.3-4.1-4.3-6.6
						c-1-2.5-1.6-5.2-1.6-8.2s0.5-5.7,1.5-8.2c1-2.5,2.5-4.7,4.3-6.6c1.8-1.9,4-3.4,6.4-4.4s5.1-1.6,8-1.6s5.5,0.5,8,1.6
						c2.5,1.1,4.6,2.5,6.5,4.4c1.8,1.9,3.3,4.1,4.3,6.6c1,2.5,1.5,5.3,1.5,8.2s-0.5,5.6-1.5,8.2c-1,2.5-2.4,4.7-4.3,6.6
						c-1.8,1.9-4,3.4-6.4,4.5C660.4,268.9,657.8,269.5,654.9,269.5L654.9,269.5z M654.8,265.3c3.1,0,5.8-0.7,8.2-2.2
						c2.4-1.5,4.2-3.4,5.6-6c1.3-2.5,2-5.4,2-8.6c0-2.4-0.4-4.6-1.2-6.6c-0.8-2-1.9-3.8-3.3-5.3c-1.4-1.5-3.1-2.7-5-3.5
						s-4-1.2-6.3-1.2c-3,0-5.7,0.7-8.1,2.1s-4.2,3.4-5.6,5.9c-1.3,2.5-2,5.4-2,8.6c0,2.4,0.4,4.6,1.2,6.6s1.9,3.8,3.3,5.3
						c1.4,1.5,3.1,2.7,5,3.5C650.5,264.9,652.5,265.3,654.8,265.3L654.8,265.3z"/>
				</g>
				<circle class="st8" cx="154.9" cy="181.3" r="38.8"/>
				<g>
					<g>
						<path class="st6" d="M146.2,84.5c-0.7,0-1.2-0.6-1.2-1.2V73.2c0-0.7,0.6-1.2,1.2-1.2s1.2,0.6,1.2,1.2v10.1
							C147.4,84,146.9,84.5,146.2,84.5z"/>
					</g>
					<g>
						<path class="st6" d="M140,90.2H130c-0.7,0-1.2-0.6-1.2-1.2s0.6-1.2,1.2-1.2H140c0.7,0,1.2,0.6,1.2,1.2S140.7,90.2,140,90.2z"
							/>
					</g>
					<g>
						<path class="st6" d="M145.7,106.4c-0.7,0-1.2-0.6-1.2-1.2V95.1c0-0.7,0.6-1.2,1.2-1.2s1.2,0.6,1.2,1.2v10.1
							C147,105.9,146.4,106.4,145.7,106.4z"/>
					</g>
					<g>
						<path class="st6" d="M161.9,90.7h-10.1c-0.7,0-1.2-0.6-1.2-1.2s0.6-1.2,1.2-1.2h10.1c0.7,0,1.2,0.6,1.2,1.2
							S162.6,90.7,161.9,90.7z"/>
					</g>
				</g>
			</g>
			<path class="st9" d="M341.3,428.9c0,1.5,1.2,2.7,2.7,2.7s2.7-1.2,2.7-2.7s-1.2-2.7-2.7-2.7S341.3,427.4,341.3,428.9z
				 M333.3,388.9c0-1.5-1.2-2.7-2.7-2.7s-2.7,1.2-2.7,2.7s1.2,2.7,2.7,2.7S333.3,390.4,333.3,388.9z M346.7,402.2
				c0-1.5-1.2-2.7-2.7-2.7s-2.7,1.2-2.7,2.7s1.2,2.7,2.7,2.7S346.7,403.7,346.7,402.2z M333.3,415.6c0-1.5-1.2-2.7-2.7-2.7
				s-2.7,1.2-2.7,2.7s1.2,2.7,2.7,2.7S333.3,417,333.3,415.6z M293.3,402.2c0-1.5-1.2-2.7-2.7-2.7s-2.7,1.2-2.7,2.7s1.2,2.7,2.7,2.7
				S293.3,403.7,293.3,402.2z M306.6,388.9c0-1.5-1.2-2.7-2.7-2.7s-2.7,1.2-2.7,2.7s1.2,2.7,2.7,2.7S306.6,390.4,306.6,388.9z
				 M306.6,415.6c0-1.5-1.2-2.7-2.7-2.7s-2.7,1.2-2.7,2.7s1.2,2.7,2.7,2.7S306.6,417.1,306.6,415.6z M280,415.6
				c0-1.5-1.2-2.7-2.7-2.7s-2.7,1.2-2.7,2.7s1.2,2.7,2.7,2.7S280,417.1,280,415.6z M280,388.9c0-1.5-1.2-2.7-2.7-2.7
				s-2.7,1.2-2.7,2.7s1.2,2.7,2.7,2.7S280,390.4,280,388.9z M293.3,428.9c0-1.5-1.2-2.7-2.7-2.7s-2.7,1.2-2.7,2.7s1.2,2.7,2.7,2.7
				S293.3,430.4,293.3,428.9z M320,402.2c0-1.5-1.2-2.7-2.7-2.7s-2.7,1.2-2.7,2.7s1.2,2.7,2.7,2.7S320,403.7,320,402.2z M320,428.9
				c0-1.5-1.2-2.7-2.7-2.7s-2.7,1.2-2.7,2.7s1.2,2.7,2.7,2.7S320,430.4,320,428.9z M239.9,402.2c0-1.5-1.2-2.7-2.7-2.7
				s-2.7,1.2-2.7,2.7s1.2,2.7,2.7,2.7S239.9,403.7,239.9,402.2z M226.6,388.9c0-1.5-1.2-2.7-2.7-2.7s-2.7,1.2-2.7,2.7
				s1.2,2.7,2.7,2.7S226.6,390.4,226.6,388.9z M253.3,388.9c0-1.5-1.2-2.7-2.7-2.7s-2.7,1.2-2.7,2.7s1.2,2.7,2.7,2.7
				S253.3,390.4,253.3,388.9z M226.6,415.6c0-1.5-1.2-2.7-2.7-2.7s-2.7,1.2-2.7,2.7s1.2,2.7,2.7,2.7S226.6,417.1,226.6,415.6z
				 M253.3,415.6c0-1.5-1.2-2.7-2.7-2.7s-2.7,1.2-2.7,2.7s1.2,2.7,2.7,2.7S253.3,417.1,253.3,415.6z M239.9,428.9
				c0-1.5-1.2-2.7-2.7-2.7s-2.7,1.2-2.7,2.7s1.2,2.7,2.7,2.7S239.9,430.4,239.9,428.9z M266.6,402.2c0-1.5-1.2-2.7-2.7-2.7
				s-2.7,1.2-2.7,2.7s1.2,2.7,2.7,2.7S266.6,403.7,266.6,402.2z M266.6,428.9c0-1.5-1.2-2.7-2.7-2.7s-2.7,1.2-2.7,2.7
				s1.2,2.7,2.7,2.7S266.6,430.4,266.6,428.9z M199.9,388.9c0-1.5-1.2-2.7-2.7-2.7s-2.7,1.2-2.7,2.7s1.2,2.7,2.7,2.7
				S199.9,390.4,199.9,388.9z M199.9,415.6c0-1.5-1.2-2.7-2.7-2.7s-2.7,1.2-2.7,2.7s1.2,2.7,2.7,2.7S199.9,417.1,199.9,415.6z
				 M186.6,402.2c0-1.5-1.2-2.7-2.7-2.7s-2.7,1.2-2.7,2.7s1.2,2.7,2.7,2.7S186.6,403.7,186.6,402.2z M186.6,428.9
				c0-1.5-1.2-2.7-2.7-2.7s-2.7,1.2-2.7,2.7s1.2,2.7,2.7,2.7S186.6,430.4,186.6,428.9z M213.3,402.2c0-1.5-1.2-2.7-2.7-2.7
				s-2.7,1.2-2.7,2.7s1.2,2.7,2.7,2.7S213.3,403.7,213.3,402.2z M213.3,428.9c0-1.5-1.2-2.7-2.7-2.7s-2.7,1.2-2.7,2.7
				s1.2,2.7,2.7,2.7S213.3,430.4,213.3,428.9z M346.7,348.9c0-1.5-1.2-2.7-2.7-2.7s-2.7,1.2-2.7,2.7s1.2,2.7,2.7,2.7
				S346.7,350.4,346.7,348.9z M333.3,362.2c0-1.5-1.2-2.7-2.7-2.7s-2.7,1.2-2.7,2.7s1.2,2.7,2.7,2.7S333.3,363.7,333.3,362.2z
				 M333.3,335.5c0-1.5-1.2-2.7-2.7-2.7s-2.7,1.2-2.7,2.7s1.2,2.7,2.7,2.7S333.3,337,333.3,335.5z M346.7,375.6
				c0-1.5-1.2-2.7-2.7-2.7s-2.7,1.2-2.7,2.7s1.2,2.7,2.7,2.7S346.7,377,346.7,375.6z M293.3,348.9c0-1.5-1.2-2.7-2.7-2.7
				s-2.7,1.2-2.7,2.7s1.2,2.7,2.7,2.7S293.3,350.4,293.3,348.9z M280,362.2c0-1.5-1.2-2.7-2.7-2.7s-2.7,1.2-2.7,2.7s1.2,2.7,2.7,2.7
				S280,363.7,280,362.2z M280,335.5c0-1.5-1.2-2.7-2.7-2.7s-2.7,1.2-2.7,2.7s1.2,2.7,2.7,2.7S280,337,280,335.5z M306.6,335.5
				c0-1.5-1.2-2.7-2.7-2.7s-2.7,1.2-2.7,2.7s1.2,2.7,2.7,2.7S306.6,337,306.6,335.5z M306.6,362.2c0-1.5-1.2-2.7-2.7-2.7
				s-2.7,1.2-2.7,2.7s1.2,2.7,2.7,2.7S306.6,363.7,306.6,362.2z M293.3,375.6c0-1.5-1.2-2.7-2.7-2.7s-2.7,1.2-2.7,2.7
				s1.2,2.7,2.7,2.7S293.3,377,293.3,375.6z M320,348.9c0-1.5-1.2-2.7-2.7-2.7s-2.7,1.2-2.7,2.7s1.2,2.7,2.7,2.7
				S320,350.4,320,348.9z M320,375.6c0-1.5-1.2-2.7-2.7-2.7s-2.7,1.2-2.7,2.7s1.2,2.7,2.7,2.7S320,377,320,375.6z M239.9,348.9
				c0-1.5-1.2-2.7-2.7-2.7s-2.7,1.2-2.7,2.7s1.2,2.7,2.7,2.7S239.9,350.4,239.9,348.9z M226.6,335.5c0-1.5-1.2-2.7-2.7-2.7
				s-2.7,1.2-2.7,2.7s1.2,2.7,2.7,2.7S226.6,337,226.6,335.5z M253.3,335.5c0-1.5-1.2-2.7-2.7-2.7s-2.7,1.2-2.7,2.7s1.2,2.7,2.7,2.7
				S253.3,337,253.3,335.5z M226.6,362.2c0-1.5-1.2-2.7-2.7-2.7s-2.7,1.2-2.7,2.7s1.2,2.7,2.7,2.7S226.6,363.7,226.6,362.2z
				 M253.3,362.2c0-1.5-1.2-2.7-2.7-2.7s-2.7,1.2-2.7,2.7s1.2,2.7,2.7,2.7S253.3,363.7,253.3,362.2z M239.9,375.6
				c0-1.5-1.2-2.7-2.7-2.7s-2.7,1.2-2.7,2.7s1.2,2.7,2.7,2.7S239.9,377,239.9,375.6z M266.6,348.9c0-1.5-1.2-2.7-2.7-2.7
				s-2.7,1.2-2.7,2.7s1.2,2.7,2.7,2.7S266.6,350.4,266.6,348.9z M266.6,375.6c0-1.5-1.2-2.7-2.7-2.7s-2.7,1.2-2.7,2.7
				s1.2,2.7,2.7,2.7S266.6,377,266.6,375.6z M186.6,348.9c0-1.5-1.2-2.7-2.7-2.7s-2.7,1.2-2.7,2.7s1.2,2.7,2.7,2.7
				S186.6,350.4,186.6,348.9z M199.9,335.6c0-1.5-1.2-2.7-2.7-2.7s-2.7,1.2-2.7,2.7s1.2,2.7,2.7,2.7S199.9,337,199.9,335.6z
				 M199.9,362.2c0-1.5-1.2-2.7-2.7-2.7s-2.7,1.2-2.7,2.7s1.2,2.7,2.7,2.7S199.9,363.7,199.9,362.2z M186.6,375.6
				c0-1.5-1.2-2.7-2.7-2.7s-2.7,1.2-2.7,2.7s1.2,2.7,2.7,2.7S186.6,377.1,186.6,375.6z M213.3,348.9c0-1.5-1.2-2.7-2.7-2.7
				s-2.7,1.2-2.7,2.7s1.2,2.7,2.7,2.7S213.3,350.4,213.3,348.9z M213.3,375.6c0-1.5-1.2-2.7-2.7-2.7s-2.7,1.2-2.7,2.7
				s1.2,2.7,2.7,2.7S213.3,377.1,213.3,375.6z M333.3,282.2c0-1.5-1.2-2.7-2.7-2.7s-2.7,1.2-2.7,2.7s1.2,2.7,2.7,2.7
				S333.3,283.7,333.3,282.2z M346.7,295.5c0-1.5-1.2-2.7-2.7-2.7s-2.7,1.2-2.7,2.7s1.2,2.7,2.7,2.7S346.7,297,346.7,295.5z
				 M333.3,308.9c0-1.5-1.2-2.7-2.7-2.7s-2.7,1.2-2.7,2.7s1.2,2.7,2.7,2.7S333.3,310.3,333.3,308.9z M346.7,322.2
				c0-1.5-1.2-2.7-2.7-2.7s-2.7,1.2-2.7,2.7s1.2,2.7,2.7,2.7S346.7,323.7,346.7,322.2z M280,308.9c0-1.5-1.2-2.7-2.7-2.7
				s-2.7,1.2-2.7,2.7s1.2,2.7,2.7,2.7S280,310.3,280,308.9z M293.3,295.5c0-1.5-1.2-2.7-2.7-2.7s-2.7,1.2-2.7,2.7s1.2,2.7,2.7,2.7
				S293.3,297,293.3,295.5z M306.7,282.2c0-1.5-1.2-2.7-2.7-2.7s-2.7,1.2-2.7,2.7s1.2,2.7,2.7,2.7S306.7,283.7,306.7,282.2z
				 M280,282.2c0-1.5-1.2-2.7-2.7-2.7s-2.7,1.2-2.7,2.7s1.2,2.7,2.7,2.7S280,283.7,280,282.2z M306.7,308.9c0-1.5-1.2-2.7-2.7-2.7
				s-2.7,1.2-2.7,2.7s1.2,2.7,2.7,2.7S306.7,310.3,306.7,308.9z M293.3,322.2c0-1.5-1.2-2.7-2.7-2.7s-2.7,1.2-2.7,2.7
				s1.2,2.7,2.7,2.7S293.3,323.7,293.3,322.2z M320,295.5c0-1.5-1.2-2.7-2.7-2.7s-2.7,1.2-2.7,2.7s1.2,2.7,2.7,2.7
				S320,297,320,295.5z M320,322.2c0-1.5-1.2-2.7-2.7-2.7s-2.7,1.2-2.7,2.7s1.2,2.7,2.7,2.7S320,323.7,320,322.2z M239.9,295.5
				c0-1.5-1.2-2.7-2.7-2.7s-2.7,1.2-2.7,2.7s1.2,2.7,2.7,2.7S239.9,297,239.9,295.5z M253.3,282.2c0-1.5-1.2-2.7-2.7-2.7
				s-2.7,1.2-2.7,2.7s1.2,2.7,2.7,2.7S253.3,283.7,253.3,282.2z M226.6,282.2c0-1.5-1.2-2.7-2.7-2.7s-2.7,1.2-2.7,2.7
				s1.2,2.7,2.7,2.7S226.6,283.7,226.6,282.2z M226.6,308.9c0-1.5-1.2-2.7-2.7-2.7s-2.7,1.2-2.7,2.7s1.2,2.7,2.7,2.7
				S226.6,310.3,226.6,308.9z M239.9,322.2c0-1.5-1.2-2.7-2.7-2.7s-2.7,1.2-2.7,2.7s1.2,2.7,2.7,2.7S239.9,323.7,239.9,322.2z
				 M253.3,308.9c0-1.5-1.2-2.7-2.7-2.7s-2.7,1.2-2.7,2.7s1.2,2.7,2.7,2.7S253.3,310.3,253.3,308.9z M266.6,295.5
				c0-1.5-1.2-2.7-2.7-2.7s-2.7,1.2-2.7,2.7s1.2,2.7,2.7,2.7S266.6,297,266.6,295.5z M266.6,322.2c0-1.5-1.2-2.7-2.7-2.7
				s-2.7,1.2-2.7,2.7s1.2,2.7,2.7,2.7S266.6,323.7,266.6,322.2z M186.6,295.5c0-1.5-1.2-2.7-2.7-2.7s-2.7,1.2-2.7,2.7
				s1.2,2.7,2.7,2.7S186.6,297,186.6,295.5z M199.9,282.2c0-1.5-1.2-2.7-2.7-2.7s-2.7,1.2-2.7,2.7s1.2,2.7,2.7,2.7
				S199.9,283.7,199.9,282.2z M186.6,322.2c0-1.5-1.2-2.7-2.7-2.7s-2.7,1.2-2.7,2.7s1.2,2.7,2.7,2.7S186.6,323.7,186.6,322.2z
				 M199.9,308.9c0-1.5-1.2-2.7-2.7-2.7s-2.7,1.2-2.7,2.7s1.2,2.7,2.7,2.7S199.9,310.3,199.9,308.9z M213.2,295.5
				c0-1.5-1.2-2.7-2.7-2.7s-2.7,1.2-2.7,2.7s1.2,2.7,2.7,2.7S213.2,297,213.2,295.5z M213.2,322.2c0-1.5-1.2-2.7-2.7-2.7
				s-2.7,1.2-2.7,2.7s1.2,2.7,2.7,2.7S213.2,323.7,213.2,322.2z M346.7,268.8c0-1.5-1.2-2.7-2.7-2.7s-2.7,1.2-2.7,2.7
				s1.2,2.7,2.7,2.7S346.7,270.3,346.7,268.8z M293.3,268.8c0-1.5-1.2-2.7-2.7-2.7s-2.7,1.2-2.7,2.7s1.2,2.7,2.7,2.7
				S293.3,270.3,293.3,268.8z M320,268.8c0-1.5-1.2-2.7-2.7-2.7s-2.7,1.2-2.7,2.7s1.2,2.7,2.7,2.7S320,270.3,320,268.8z
				 M239.9,268.8c0-1.5-1.2-2.7-2.7-2.7s-2.7,1.2-2.7,2.7s1.2,2.7,2.7,2.7S239.9,270.3,239.9,268.8z M266.6,268.8
				c0-1.5-1.2-2.7-2.7-2.7s-2.7,1.2-2.7,2.7s1.2,2.7,2.7,2.7S266.6,270.3,266.6,268.8z M186.6,268.8c0-1.5-1.2-2.7-2.7-2.7
				s-2.7,1.2-2.7,2.7s1.2,2.7,2.7,2.7S186.6,270.3,186.6,268.8z M213.2,268.8c0-1.5-1.2-2.7-2.7-2.7s-2.7,1.2-2.7,2.7
				s1.2,2.7,2.7,2.7S213.2,270.3,213.2,268.8z"/>
		</g>
	</g>
</g>
</svg>
